# xmcd
#
# Track frame offsets: 
#        150
#        16378
#        32955
#        50605
#        67916
#        85044
#        97704
#        116276
#        134390
#        153282
#        168641
#        180857
#        200186
#        213982
#        232034
#        249504
#        269274
#        281362
#
# Disc length: 3972 seconds
#
# Revision: 1
# Processed by: cddbd v1.5.2PL0 Copyright (c) Steve Scherf et al.
# Submitted via: ExactAudioCopy v0.99pb5
#
DISCID=ef0f8212
DTITLE=Various Artist - Goldene Europa '98 - Die Aktuelle
DYEAR=1998
DGENRE=Pop
TTITLE0=Falco - Out of the dark
TTITLE1=Boyzone - All that I need
TTITLE2=4 The Cause - Ain't no sunshine
TTITLE3=Nana - Dreams
TTITLE4=DJ Bobo - Around the world
TTITLE5=Bellini - Samba de Janeiro
TTITLE6=Modern Talking - We take the chance
TTITLE7=Udo Lindenberg - König von Scheißegalien
TTITLE8=Nena - Jamma nich
TTITLE9=Moffatts - Miss you like crazy
TTITLE10=James Last - Stand by your man
TTITLE11=La Bouche - You won't forget me
TTITLE12=Celtic Spirit - Lyra (ta muid)
TTITLE13=Peter Maffay and Freunde - Something will happen
TTITLE14=Bell Book and Candle - Read my sign
TTITLE15=Anna Maria Kaufmann and Joey Tempest - Running with a dream
TTITLE16=STS - An irgendwas muß man glaub'n
TTITLE17=Udo Jürgens - Der Erste Sahne Mix
EXTD=
EXTT0=
EXTT1=
EXTT2=
EXTT3=
EXTT4=
EXTT5=
EXTT6=
EXTT7=
EXTT8=
EXTT9=
EXTT10=
EXTT11=
EXTT12=
EXTT13=
EXTT14=
EXTT15=
EXTT16=
EXTT17=
PLAYORDER=
